<?xml version='1.0' encoding='utf-8'?>
<svg xmlns="http://www.w3.org/2000/svg" xmlns:xlink="http://www.w3.org/1999/xlink" viewBox="0 0 167.5 127.5">
  <style>
.point circle {
  fill: steelblue;
}

.point text {
  visibility: hidden;
  font-size: 4px;
  text-anchor: middle;
  dominant-baseline: middle;
}

.point:hover circle{
  fill: yellow;
  stroke-width:4;
  stroke:yellow;
}

.point:hover text {
  visibility: visible;
}

.axis {
    stroke: black;
    stroke-width: 0.1;
    marker-end: url(#markerArrow);
}

marker {
    fill: #000000;
}

.x_label {
  stroke: black;
  stroke-width: 0.1;
}

.x_label text {
    text-anchor: middle;
    dominant-baseline: text-before-edge;
    font-size:2px;
}

.y_label {
  stroke: black;
  stroke-width: 0.1;
}

.y_label text {
    text-anchor: end;
    dominant-baseline: middle;
    font-size: 2px;
}

.x-grids {
  stroke: gray;
  stroke-width: 0.1;
  stroke-dasharray: 2;
}

.y-grids {
  stroke: gray;
  stroke-width: 0.1;
  stroke-dasharray: 2;
}
</style>
  <defs>
    <marker id="markerArrow" markerWidth="13" markerHeight="13" refX="9" refY="6" orient="auto">
      <path d="M2,2 L2,11 L10,6 L2,2" />
    </marker>
  </defs>
  <g class="point">
    <circle cx="118.5" cy="115" r="1" />
    <text x="118.5" y="115">5</text>
  </g>
  <g class="point">
    <circle cx="53.5" cy="43" r="1" />
    <text x="53.5" y="43">77</text>
  </g>
  <g class="point">
    <circle cx="107.5" cy="76" r="1" />
    <text x="107.5" y="76">44</text>
  </g>
  <g class="point">
    <circle cx="46.5" cy="90" r="1" />
    <text x="46.5" y="90">30</text>
  </g>
  <g class="point">
    <circle cx="40.5" cy="35" r="1" />
    <text x="40.5" y="35">85</text>
  </g>
  <g class="point">
    <circle cx="126.5" cy="87" r="1" />
    <text x="126.5" y="87">33</text>
  </g>
  <g class="point">
    <circle cx="67.5" cy="48" r="1" />
    <text x="67.5" y="48">72</text>
  </g>
  <g class="point">
    <circle cx="41.5" cy="118" r="1" />
    <text x="41.5" y="118">2</text>
  </g>
  <g class="point">
    <circle cx="55.5" cy="24" r="1" />
    <text x="55.5" y="24">96</text>
  </g>
  <g class="point">
    <circle cx="147.5" cy="60" r="1" />
    <text x="147.5" y="60">60</text>
  </g>
  <g class="point">
    <circle cx="64.5" cy="22" r="1" />
    <text x="64.5" y="22">98</text>
  </g>
  <g class="point">
    <circle cx="17.5" cy="84" r="1" />
    <text x="17.5" y="84">36</text>
  </g>
  <g class="point">
    <circle cx="150.5" cy="47" r="1" />
    <text x="150.5" y="47">73</text>
  </g>
  <g class="point">
    <circle cx="15.5" cy="105" r="1" />
    <text x="15.5" y="105">15</text>
  </g>
  <g class="point">
    <circle cx="81.5" cy="44" r="1" />
    <text x="81.5" y="44">76</text>
  </g>
  <g class="point">
    <circle cx="84.5" cy="86" r="1" />
    <text x="84.5" y="86">34</text>
  </g>
  <g class="point">
    <circle cx="158.5" cy="5" r="1" />
    <text x="158.5" y="5">115</text>
  </g>
  <g class="point">
    <circle cx="162.5" cy="7" r="1" />
    <text x="162.5" y="7">113</text>
  </g>
  <g class="point">
    <circle cx="63.5" cy="80" r="1" />
    <text x="63.5" y="80">40</text>
  </g>
  <g class="point">
    <circle cx="30.5" cy="103" r="1" />
    <text x="30.5" y="103">17</text>
  </g>
  <g class="point">
    <circle cx="31.5" cy="116" r="1" />
    <text x="31.5" y="116">4</text>
  </g>
  <g class="point">
    <circle cx="18.5" cy="25" r="1" />
    <text x="18.5" y="25">95</text>
  </g>
  <g class="point">
    <circle cx="144.5" cy="23" r="1" />
    <text x="144.5" y="23">97</text>
  </g>
  <g class="point">
    <circle cx="12.5" cy="53" r="1" />
    <text x="12.5" y="53">67</text>
  </g>
  <g class="point">
    <circle cx="134.5" cy="49" r="1" />
    <text x="134.5" y="49">71</text>
  </g>
  <g class="point">
    <circle cx="165.5" cy="59" r="1" />
    <text x="165.5" y="59">61</text>
  </g>
  <g class="point">
    <circle cx="14.5" cy="29" r="1" />
    <text x="14.5" y="29">91</text>
  </g>
  <g class="point">
    <circle cx="68.5" cy="106" r="1" />
    <text x="68.5" y="106">14</text>
  </g>
  <g class="point">
    <circle cx="161.5" cy="101" r="1" />
    <text x="161.5" y="101">19</text>
  </g>
  <g class="point">
    <circle cx="76.5" cy="85" r="1" />
    <text x="76.5" y="85">35</text>
  </g>
  <line class="axis" x1="7.5" y1="120" x2="167.5" y2="120" />
  <text x="80.0" y="124" font-size="3" text-anchor="middle" dominant-baseline="hanging">X Axis title</text>
  <line class="axis" x1="7.5" y1="120" x2="7.5" y2="0" />
  <text x="3.5" y="60.0" font-size="3" text-anchor="middle" dominant-baseline="middle" writing-mode="tb">Y Axis title</text>
  <g class="x_label">
    <line x1="7.5" y1="120" x2="7.5" y2="120.5" />
    <line x1="27.5" y1="120" x2="27.5" y2="120.5" />
    <line x1="47.5" y1="120" x2="47.5" y2="120.5" />
    <line x1="67.5" y1="120" x2="67.5" y2="120.5" />
    <line x1="87.5" y1="120" x2="87.5" y2="120.5" />
    <line x1="107.5" y1="120" x2="107.5" y2="120.5" />
    <line x1="127.5" y1="120" x2="127.5" y2="120.5" />
    <line x1="147.5" y1="120" x2="147.5" y2="120.5" />
    <text x="7.5" y="120.5">0</text>
    <text x="27.5" y="120.5">20</text>
    <text x="47.5" y="120.5">40</text>
    <text x="67.5" y="120.5">60</text>
    <text x="87.5" y="120.5">80</text>
    <text x="107.5" y="120.5">100</text>
    <text x="127.5" y="120.5">120</text>
    <text x="147.5" y="120.5">140</text>
  </g>
  <g class="y_label">
    <line x1="7.0" y1="20" x2="7.5" y2="20" />
    <line x1="7.0" y1="40" x2="7.5" y2="40" />
    <line x1="7.0" y1="60" x2="7.5" y2="60" />
    <line x1="7.0" y1="80" x2="7.5" y2="80" />
    <line x1="7.0" y1="100" x2="7.5" y2="100" />
    <text x="7.0" y="20">100</text>
    <text x="7.0" y="40">80</text>
    <text x="7.0" y="60">60</text>
    <text x="7.0" y="80">40</text>
    <text x="7.0" y="100">20</text>
  </g>
  <g class="x-grids">
    <line x1="7.5" y1="120" x2="167.5" y2="120" />
    <line x1="7.5" y1="80" x2="167.5" y2="80" />
    <line x1="7.5" y1="40" x2="167.5" y2="40" />
  </g>
  <g class="y-grids">
    <line x1="7.5" y1="0" x2="7.5" y2="120" />
    <line x1="47.5" y1="0" x2="47.5" y2="120" />
    <line x1="87.5" y1="0" x2="87.5" y2="120" />
    <line x1="127.5" y1="0" x2="127.5" y2="120" />
  </g>
</svg>